<?xml version="1.0" standalone="no"?>
<!DOCTYPE svg PUBLIC "-//W3C//DTD SVG 20010904//EN"
 "http://www.w3.org/TR/2001/REC-SVG-20010904/DTD/svg10.dtd">
<svg version="1.0" xmlns="http://www.w3.org/2000/svg"
 width="700.000000pt" height="700.000000pt" viewBox="0 0 700.000000 700.000000"
 preserveAspectRatio="xMidYMid meet">
<metadata>
Created by potrace 1.14, written by Peter Selinger 2001-2017
</metadata>
<g transform="translate(0.000000,700.000000) scale(0.100000,-0.100000)"
fill="#000000" stroke="none">
<path d="M1730 6989 c-280 -32 -576 -133 -808 -277 -516 -321 -845 -846 -911
-1454 -15 -134 -15 -3382 0 -3516 25 -232 88 -453 189 -659 292 -598 869 -999
1542 -1072 134 -15 3382 -15 3516 0 409 44 785 209 1087 476 365 322 595 773
645 1262 14 143 14 3376 -1 3509 -42 391 -197 757 -444 1052 -322 383 -778
624 -1287 679 -118 13 -3414 13 -3528 0z m250 -1624 l0 -235 -77 0 c-100 0
-140 -12 -190 -55 -80 -68 -77 -47 -83 -615 l-6 -505 -27 -80 c-45 -136 -123
-249 -233 -339 l-62 -50 97 -96 c108 -106 157 -183 198 -305 l27 -80 6 -485
c5 -477 5 -486 27 -527 27 -50 86 -100 133 -113 19 -6 70 -10 113 -10 l77 0 0
-236 0 -237 -117 6 c-65 3 -145 13 -178 21 -191 51 -365 195 -450 371 -68 141
-68 140 -74 675 -6 482 -6 485 -29 522 -12 20 -96 101 -185 181 -89 80 -174
158 -189 173 -78 83 -78 225 0 308 15 16 98 82 185 147 98 75 167 135 185 161
l27 41 6 506 c5 437 8 514 23 565 68 231 227 404 442 483 85 30 147 40 262 42
l92 1 0 -235z m3360 211 c30 -9 93 -34 140 -57 68 -34 103 -60 171 -129 73
-72 94 -101 132 -180 74 -154 77 -180 77 -713 l0 -463 28 -55 c24 -48 46 -68
201 -185 204 -152 233 -189 233 -293 0 -98 -27 -134 -231 -315 -108 -95 -187
-173 -202 -199 l-24 -42 -5 -485 c-6 -472 -7 -487 -29 -555 -41 -126 -89 -203
-181 -295 -139 -140 -275 -198 -487 -207 l-123 -6 0 237 0 236 85 0 c98 0 143
15 193 63 69 66 66 42 73 577 5 409 8 494 22 541 43 144 100 236 219 350 l89
86 -57 44 c-113 87 -208 230 -250 374 -15 52 -18 128 -23 565 -7 558 -3 531
-73 597 -50 48 -95 63 -193 63 l-85 0 0 236 0 237 123 -6 c67 -3 147 -13 177
-21z m-1941 -675 c11 -11 23 -40 26 -64 4 -25 5 -350 2 -724 -4 -574 -7 -691
-21 -763 -62 -320 -202 -529 -446 -668 l-55 -32 724 0 725 0 23 -22 c23 -21
23 -24 23 -260 0 -225 -1 -239 -20 -258 -20 -20 -33 -20 -777 -20 -417 0 -763
4 -769 8 -34 22 -34 38 -34 1412 l0 1361 25 24 24 25 266 0 c248 0 266 -1 284
-19z"/>
</g>
</svg>
