<svg width="36" height="39" viewBox="0 0 36 39" fill="none" xmlns="http://www.w3.org/2000/svg">
<path d="M6.699 5.85798C4.40657 9.15226 4.69188 13.4387 6.44332 16.9397L6.57147 17.1885L6.65348 17.3463L6.70461 17.4371L6.79597 17.6004C6.85023 17.6961 6.90594 17.7916 6.9631 17.887L7.05852 18.0442C7.12171 18.1458 7.18636 18.2469 7.25246 18.3475L7.33509 18.4751C7.42635 18.6114 7.52 18.7467 7.61603 18.8807L7.62414 18.891L7.67154 18.9549C7.75489 19.0697 7.84023 19.1833 7.92753 19.2958L8.02388 19.4183C8.10163 19.5158 8.18051 19.6129 8.26055 19.7095L8.35097 19.8174C8.45855 19.944 8.56861 20.0706 8.68055 20.1941L8.6871 20.2009L8.69989 20.215C8.80933 20.3344 8.92127 20.4513 9.03508 20.5683L9.14235 20.6765C9.23048 20.7648 9.31966 20.8522 9.40988 20.9387L9.51933 21.0428C9.63968 21.1565 9.76191 21.2677 9.88601 21.3765L9.89163 21.3815L9.95555 21.4357C10.0651 21.5307 10.1761 21.6245 10.2886 21.717L10.4264 21.827C10.5181 21.9004 10.6106 21.9728 10.7039 22.0441L10.8526 22.1566C10.9555 22.2323 11.0594 22.3068 11.1641 22.3802L11.2773 22.4606L11.3088 22.4831C11.408 22.5517 11.5099 22.6175 11.6113 22.6833L11.7422 22.7706C11.8981 22.8688 12.0562 22.9664 12.2159 23.0606L12.3468 23.1345C12.4643 23.2022 12.5828 23.2686 12.7023 23.3337L12.899 23.4354L13.1535 23.5676L13.2121 23.5959L13.3162 23.6461C13.4493 23.71 13.5837 23.7722 13.7194 23.8329L13.8045 23.871C13.9598 23.9389 14.1166 24.0042 14.2747 24.0668L14.3895 24.1117C14.536 24.1686 14.6839 24.2234 14.8332 24.276L14.889 24.2953C15.0524 24.3527 15.2177 24.4054 15.3839 24.4575L15.5033 24.493C15.6723 24.5441 15.8397 24.6046 16.014 24.6371C27.0998 26.6585 30.3199 17.9756 30.3199 17.9756C27.6152 21.499 22.8149 22.4282 18.2665 21.3936C18.0941 21.3546 17.927 21.3007 17.7589 21.2514L17.6323 21.2128C17.4684 21.1627 17.3054 21.1097 17.1434 21.0537L17.0764 21.0297C16.9319 20.9785 16.7883 20.9252 16.6454 20.8698L16.5245 20.8224C16.3679 20.7606 16.2129 20.6962 16.0592 20.6291L15.9663 20.5876C15.8347 20.5284 15.7038 20.4676 15.5737 20.4052L15.4602 20.3506C15.3583 20.301 15.2576 20.2483 15.1565 20.1963L14.9542 20.0899C14.8313 20.0243 14.71 19.9563 14.5903 19.886L14.4674 19.8177C14.308 19.7233 14.15 19.6264 13.9935 19.5271L13.8656 19.442C13.7521 19.3691 13.6397 19.2943 13.5286 19.2178L13.4198 19.1414C13.3126 19.0659 13.2064 18.9892 13.1011 18.9113L12.9598 18.8043C12.863 18.7306 12.7671 18.6556 12.6724 18.5795L12.5442 18.4766C12.4232 18.3777 12.3038 18.277 12.1859 18.1745L12.1466 18.1417C12.0194 18.0295 11.8938 17.9154 11.77 17.7994L11.664 17.6971C11.5721 17.6103 11.4819 17.5219 11.3933 17.4318L11.2873 17.3257C11.1744 17.2104 11.0637 17.0933 10.9552 16.9746L10.9387 16.9569C10.824 16.8313 10.7117 16.7036 10.6019 16.5737L10.5137 16.4689C10.4316 16.3701 10.3508 16.2702 10.2714 16.1692L10.1825 16.0585C10.0875 15.9357 9.99412 15.8114 9.90254 15.6859C7.3775 12.2414 6.47013 7.49062 8.48848 3.58925M13.8145 3.08225C12.1569 5.46759 12.2467 8.66147 13.5401 11.184C13.7567 11.608 14.0016 12.0168 14.2732 12.4079C14.5214 12.7643 14.797 13.1877 15.1266 13.4736C15.246 13.6052 15.3711 13.7337 15.4986 13.8597L15.5965 13.9566C15.72 14.077 15.8466 14.1946 15.9763 14.3096L15.9919 14.323L15.9956 14.3267C16.1397 14.453 16.2884 14.5743 16.4393 14.6941L16.54 14.7726C16.6916 14.8886 16.8459 15.0028 17.0043 15.1116L17.0177 15.1219L17.2298 15.2612L17.3302 15.3277C17.4433 15.4004 17.558 15.4707 17.6744 15.5384L17.7231 15.5671C17.8237 15.6249 17.925 15.6816 18.0271 15.7371L18.1353 15.7932L18.3479 15.9036L18.38 15.9182C18.5258 15.9904 18.6738 16.0593 18.8241 16.125L18.922 16.1655C19.0423 16.2166 19.1636 16.2658 19.2858 16.313L19.4418 16.3704C19.5528 16.4115 19.6638 16.4492 19.776 16.4867L19.9269 16.535C20.0863 16.5843 20.244 16.6469 20.4099 16.6747C28.9691 18.0925 30.9451 11.5024 30.9451 11.5024C29.164 14.0679 25.7144 15.2918 22.0335 14.3364C21.8708 14.2935 21.7092 14.2468 21.5487 14.1964L21.403 14.1493C21.2893 14.1127 21.1763 14.0738 21.0641 14.0327L20.911 13.9757C20.7885 13.9285 20.6668 13.8793 20.5459 13.8282L20.4477 13.7867C20.2972 13.721 20.1483 13.6518 20.0011 13.579L19.7773 13.4652L19.6482 13.3988C19.5525 13.3468 19.4581 13.2934 19.3647 13.2385L19.2971 13.2002C19.1813 13.1327 19.0669 13.0629 18.9541 12.9906L18.8506 12.9217L18.6286 12.7746C18.4715 12.6656 18.3172 12.5528 18.1658 12.4362L18.0617 12.3539C16.4506 11.0821 15.1734 9.3434 14.5663 7.37213C13.9299 5.32759 14.0671 3.03267 15.1696 1.16991M19.7991 1.00839C18.8219 2.44646 18.7258 4.23282 19.404 5.82119C20.119 7.50714 21.5842 8.82953 23.2945 9.45689L23.5071 9.53017L23.6007 9.5601C23.7014 9.59191 23.8015 9.6287 23.9056 9.64803C28.6317 10.5613 29.9136 7.22309 30.2547 6.73136C29.1319 8.3481 27.2448 8.7363 24.9293 8.17411C24.7399 8.1257 24.553 8.06794 24.3693 8.00105C24.1428 7.92068 23.9207 7.82847 23.7039 7.72479C23.2923 7.52702 22.9016 7.28865 22.5374 7.01324C20.4654 5.44109 19.1786 2.44241 20.5306 0" fill="#0868AC"/>
<path d="M18.7353 29.5164H17.4176C17.3803 29.5181 17.3446 29.5316 17.3156 29.555C17.2866 29.5784 17.2658 29.6104 17.2564 29.6465L16.7886 31.8104L16.3209 33.9744C16.3117 34.0105 16.2911 34.0427 16.2621 34.0662C16.2331 34.0896 16.1973 34.103 16.16 34.1044H15.2274C14.3048 34.1044 14.4114 33.4661 14.6004 32.5918L14.606 32.5653L14.6266 32.4549L14.6303 32.4344L14.6724 32.2099L14.7176 31.9695L14.7656 31.7247L14.9783 30.6857L15.1912 29.6468C15.1953 29.6309 15.1956 29.6143 15.1921 29.5983C15.1886 29.5823 15.1813 29.5674 15.171 29.5547C15.1607 29.542 15.1475 29.5318 15.1325 29.5252C15.1176 29.5185 15.1013 29.5154 15.0849 29.5161H13.7326C13.6953 29.5175 13.6595 29.5309 13.6306 29.5545C13.6017 29.578 13.5812 29.6103 13.5723 29.6465L13.2814 31.0259L12.9908 32.4057L12.9902 32.4075L12.9634 32.536C12.6285 34.0648 12.717 35.5232 14.5374 35.569L14.5904 35.5699H17.4475C17.4848 35.5685 17.5206 35.5551 17.5496 35.5317C17.5786 35.5082 17.5992 35.476 17.6084 35.4399L18.2245 32.5435L18.8407 29.6468C18.8559 29.5751 18.8086 29.5168 18.7353 29.5164ZM4.62399 29.5012H3.17719C3.13978 29.5025 3.1038 29.5159 3.07455 29.5392C3.04531 29.5626 3.02433 29.5947 3.01473 29.6309L2.87754 30.2364L2.74034 30.8419C2.72444 30.9134 2.7709 30.9717 2.84417 30.9717H4.3022C4.33948 30.9701 4.37528 30.9566 4.40435 30.9332C4.43341 30.9098 4.45422 30.8777 4.46372 30.8416L4.59624 30.2364L4.72876 29.6312C4.74403 29.5598 4.69726 29.5012 4.62399 29.5012ZM4.20429 31.3857H2.74595C2.70855 31.3871 2.67257 31.4004 2.64332 31.4238C2.61407 31.4471 2.5931 31.4793 2.5835 31.5155L2.37864 32.4228L2.17409 33.3299L2.11703 33.5899L1.92028 34.516L1.72384 35.4424C1.70856 35.5138 1.67707 35.6292 1.65368 35.6984C1.65368 35.6984 1.38116 36.5091 0.923111 36.4997L0.865738 36.4985L0.469427 36.4913C0.432223 36.4923 0.395994 36.5051 0.366603 36.528C0.337211 36.5508 0.315882 36.5824 0.305726 36.6182L0.154498 37.254L0.00358216 37.8895C-0.0135674 37.9606 0.0325806 38.0192 0.105232 38.0204C0.36497 38.0236 0.946809 38.0301 1.29884 38.0301C2.44287 38.0301 3.04623 37.3962 3.43256 35.5721L3.885 33.4786L4.30937 31.5151C4.32465 31.4444 4.27725 31.3857 4.20429 31.3857ZM31.0565 30.895L30.996 30.6452L30.9364 30.3895L30.9062 30.2604C30.7877 29.7999 30.44 29.5345 29.6848 29.5345L28.5093 29.5333L27.4267 29.5317H26.2084C26.1712 29.533 26.1353 29.5464 26.1064 29.5698C26.0774 29.5933 26.0568 29.6256 26.0478 29.6617L25.9939 29.9162L25.9303 30.2168L25.9125 30.3013L25.364 32.8706L24.8433 35.3096C24.8277 35.3813 24.8227 35.4692 24.8315 35.5048C24.8402 35.5406 24.9808 35.5699 25.0538 35.5699H26.1526C26.2259 35.5699 26.3185 35.5568 26.3584 35.5406C26.3983 35.5244 26.4573 35.3807 26.4719 35.3093L26.6671 34.343L26.8626 33.3763L26.8629 33.3748L26.8891 33.246L27.1261 32.136L27.3353 31.1556C27.3445 31.1196 27.3651 31.0874 27.3941 31.064C27.423 31.0406 27.4587 31.0271 27.4959 31.0256L30.9536 31.024C31.0268 31.0247 31.073 30.9664 31.0565 30.895ZM35.5076 28.6375L35.2413 28.6384H34.1347C34.0941 28.6406 34.0545 28.6516 34.0186 28.6706C33.9827 28.6896 33.9513 28.7161 33.9267 28.7485L31.4793 32.3337C31.4381 32.3941 31.391 32.3854 31.3748 32.3143L31.1946 31.5245C31.185 31.4883 31.164 31.4561 31.1346 31.4327C31.1053 31.4094 31.0693 31.3961 31.0318 31.3948H29.4587C29.3855 31.3948 29.3421 31.4522 29.3621 31.5223L30.0671 33.9922C30.087 34.0626 30.0886 34.178 30.0705 34.2491L29.7634 35.4443C29.745 35.5154 29.7899 35.573 29.8632 35.573H31.4182C31.4558 35.5715 31.492 35.5583 31.5217 35.5352C31.5514 35.5121 31.5732 35.4803 31.584 35.4443L31.8915 34.2491C31.9157 34.1648 31.954 34.0852 32.0047 34.0137L35.9778 28.7407C36.022 28.682 35.998 28.6343 35.9251 28.635L35.5076 28.6375ZM23.0083 31.7303V31.7291C23.0029 31.7667 22.9843 31.8012 22.9558 31.8264C22.9273 31.8516 22.8908 31.8658 22.8527 31.8666H20.8581C20.7889 31.8666 20.7539 31.8198 20.7642 31.7618L20.7661 31.7571L20.7648 31.7577L20.7658 31.7512L20.7748 31.7172C20.9653 31.2108 21.3532 30.8784 22.0826 30.8784C22.9039 30.8781 23.0641 31.2791 23.0083 31.7303ZM22.4231 29.4279C19.8628 29.4279 19.256 30.982 18.9155 32.5507C18.5753 34.1496 18.6043 35.6441 21.2541 35.6441H21.5752L21.6551 35.6438H21.6738L21.9918 35.6429H21.9974C22.6971 35.6401 23.399 35.6348 23.6831 35.6326C23.7201 35.6309 23.7556 35.6172 23.7843 35.5936C23.8129 35.57 23.8331 35.5377 23.8418 35.5016L23.9491 34.9775L23.9699 34.8755L24.0978 34.25C24.1019 34.2342 24.1022 34.2176 24.0986 34.2016C24.0951 34.1856 24.0879 34.1707 24.0776 34.158C24.0672 34.1453 24.054 34.1352 24.0391 34.1286C24.0241 34.1219 24.0078 34.1189 23.9915 34.1197H21.6095C20.662 34.1197 20.3807 33.8681 20.4845 33.1278H24.292L24.2917 33.1281L24.2942 33.1278C24.3244 33.1266 24.3535 33.1167 24.3782 33.0993C24.4028 33.0819 24.4218 33.0577 24.433 33.0296L24.442 32.9966L24.4417 32.9969C25.007 30.8644 24.8449 29.4282 22.4231 29.4279ZM10.3217 31.7222L10.2855 31.8497L9.99804 32.869L9.71055 33.8877C9.69864 33.9237 9.67607 33.9553 9.64584 33.9781C9.6156 34.001 9.57912 34.0142 9.54124 34.0159H8.0196C6.86528 34.0159 6.58403 33.1129 6.86528 31.7814C7.14622 30.4194 7.69719 29.5729 8.83343 29.4871C10.3862 29.3699 10.6968 30.4619 10.3217 31.7222ZM11.3656 33.9376C11.3656 33.9376 12.0831 32.1952 12.2459 31.1893C12.4682 29.8426 11.7938 27.8888 9.18889 27.8888C6.59899 27.8888 5.47398 29.7537 5.04493 31.7814C4.61588 33.8238 5.17807 35.6145 7.75332 35.5999L9.78507 35.5924L11.6837 35.5855C11.7213 35.5836 11.7575 35.5703 11.7872 35.5472C11.817 35.5241 11.839 35.4924 11.8502 35.4564L12.181 34.1948C12.1994 34.1238 12.1548 34.0658 12.0816 34.0651L11.7644 34.0633L11.4473 34.0614C11.3853 34.0611 11.3497 34.0205 11.3572 33.9672L11.3656 33.9376ZM24.1873 32.7711C24.1873 32.7826 24.1851 32.7939 24.1807 32.8045C24.1763 32.8151 24.1699 32.8248 24.1618 32.8329C24.1537 32.841 24.1441 32.8475 24.1335 32.8519C24.1229 32.8563 24.1116 32.8586 24.1001 32.8586C24.0887 32.8586 24.0773 32.8564 24.0667 32.852C24.0561 32.8476 24.0465 32.8412 24.0383 32.8331C24.0302 32.825 24.0238 32.8154 24.0194 32.8048C24.015 32.7942 24.0127 32.7829 24.0127 32.7714C24.0126 32.7483 24.0218 32.7261 24.0381 32.7097C24.0545 32.6932 24.0767 32.684 24.0998 32.684C24.123 32.6839 24.1452 32.6931 24.1616 32.7094C24.178 32.7258 24.1872 32.748 24.1873 32.7711Z" fill="#131B28"/>
</svg>
