<svg width="40" height="40" viewBox="0 0 40 40" fill="none" xmlns="http://www.w3.org/2000/svg">
<g clip-path="url(#clip0_132_465)">
<path d="M30.625 0H9.375C4.19733 0 0 4.19733 0 9.375V30.625C0 35.8027 4.19733 40 9.375 40H30.625C35.8027 40 40 35.8027 40 30.625V9.375C40 4.19733 35.8027 0 30.625 0Z" fill="#F4F2ED"/>
<path d="M15.8803 28.5342C15.8803 28.5342 14.6803 29.2645 16.7155 29.4734C19.173 29.7866 20.4724 29.7342 23.1853 29.2128C23.1853 29.2128 23.9156 29.683 24.9072 30.0478C18.8017 32.6566 11.0796 29.8912 15.8803 28.5342ZM15.0977 25.1428C15.0977 25.1428 13.793 26.1344 15.828 26.3426C18.4886 26.6034 20.5766 26.6558 24.1769 25.9259C24.1769 25.9259 24.647 26.448 25.4292 26.7087C18.0725 28.9001 9.82768 26.917 15.0977 25.1433V25.1428ZM29.4992 31.0912C29.4992 31.0912 30.3861 31.8216 28.5077 32.3959C25.0114 33.4394 13.8453 33.753 10.7146 32.3959C9.61939 31.9258 11.7063 31.2472 12.3842 31.1436C13.0627 30.987 13.4277 30.987 13.4277 30.987C12.2277 30.152 5.44408 32.7089 9.98377 33.4447C22.4546 35.4801 32.7342 32.5578 29.4988 31.0966L29.4992 31.0912ZM16.4542 21.5942C16.4542 21.5942 10.7664 22.9512 14.4186 23.4203C15.9841 23.6286 19.0625 23.5769 21.9325 23.368C24.2806 23.1595 26.6341 22.7419 26.6341 22.7419C26.6341 22.7419 25.7989 23.1072 25.2252 23.4722C19.4285 24.9867 8.31424 24.3083 11.4974 22.7428C14.2114 21.4381 16.4542 21.5942 16.4542 21.5942ZM26.6286 27.2819C32.4735 24.2553 29.7594 21.3334 27.881 21.6989C27.4108 21.8031 27.2025 21.9073 27.2025 21.9073C27.2025 21.9073 27.3589 21.5942 27.7244 21.4906C31.4289 20.1859 34.3514 25.4041 26.5246 27.4391C26.5246 27.4391 26.5769 27.3867 26.6286 27.2825V27.2819ZM17.028 35.5256C22.6635 35.8911 31.273 35.3172 31.4819 32.6555C31.4819 32.6555 31.0652 33.6989 26.8381 34.4817C22.0378 35.3686 16.0888 35.2644 12.5931 34.69C12.5931 34.69 13.3235 35.3161 17.0285 35.525L17.028 35.5256Z" fill="#4E7896"/>
<path d="M23.0757 4.375C23.0757 4.375 26.3107 7.66234 19.9973 12.6188C14.9357 16.6363 18.8487 18.9325 19.9973 21.5408C17.0231 18.8802 14.8845 16.5316 16.3446 14.34C18.4892 11.1067 24.3846 9.54125 23.0757 4.375ZM21.4062 19.3503C22.9192 21.0722 20.9895 22.6377 20.9895 22.6377C20.9895 22.6377 24.8506 20.6555 23.0768 18.2022C21.459 15.8541 20.2068 14.7059 26.9903 10.792C26.9903 10.792 16.2932 13.4527 21.4073 19.3492L21.4062 19.3503Z" fill="#F58219"/>
</g>
<defs>
<clipPath id="clip0_132_465">
<rect width="40" height="40" fill="white"/>
</clipPath>
</defs>
</svg>
