<svg width="36" height="39" viewBox="0 0 36 39" fill="none" xmlns="http://www.w3.org/2000/svg">
<path d="M18 9C13.4666 9 10.6342 11.2215 9.5 15.6662C11.1995 13.4445 13.1834 12.6114 15.4495 13.1669C16.7433 13.483 17.668 14.4029 18.692 15.4222C20.3585 17.0804 22.2875 19 26.5 19C31.0332 19 33.8658 16.7783 35 12.3325C33.3 14.5553 31.3168 15.3889 29.0503 14.8331C27.7567 14.5167 26.8331 13.5971 25.8078 12.5778C24.1423 10.9196 22.2139 9 18 9ZM9.5 19C4.96684 19 2.13422 21.2217 1 25.6675C2.69982 23.4447 4.68298 22.6111 6.94947 23.1669C8.24333 23.4833 9.16797 24.4029 10.192 25.4222C11.8585 27.0804 13.7875 29 18 29C22.5332 29 25.3658 26.7785 26.5 22.3338C24.8 24.5556 22.8168 25.3887 20.5503 24.8331C19.2567 24.517 18.3331 23.5971 17.3078 22.5778C15.6423 20.9196 13.7139 19 9.5 19Z" fill="#38BDF8"/>
</svg>
