<svg width="36" height="41" viewBox="0 0 36 41" fill="none" xmlns="http://www.w3.org/2000/svg">
<g clip-path="url(#clip0_176_385)">
<path d="M30.8953 8.35477C30.8678 8.15477 30.6926 8.04409 30.5478 8.0319C29.4801 7.95167 28.4124 7.87208 27.3447 7.79313C27.3447 7.79313 25.2204 5.68422 24.9873 5.4508C24.754 5.21751 24.2984 5.28847 24.1215 5.34053C24.0955 5.3482 23.6574 5.4834 22.9327 5.70765C22.2232 3.66573 20.9708 1.78929 18.7677 1.78929C18.7069 1.78929 18.6443 1.79176 18.5817 1.79532C17.9551 0.966689 17.1789 0.606689 16.5085 0.606689C11.3763 0.606689 8.92439 7.02244 8.15562 10.2827C6.16138 10.9007 4.74466 11.34 4.5637 11.3968C3.45055 11.746 3.41535 11.7811 3.26918 12.83C3.15918 13.6241 0.246582 36.1486 0.246582 36.1486L22.9422 40.4009L35.2395 37.7407C35.2395 37.7407 30.9225 8.55477 30.8953 8.35477ZM21.6784 6.09559L19.758 6.68998C19.7586 6.55463 19.7593 6.42148 19.7593 6.27587C19.7593 5.00683 19.5832 3.98505 19.3006 3.17505C20.4358 3.31751 21.1918 4.60916 21.6784 6.09559ZM17.8923 3.42669C18.208 4.21751 18.4132 5.35244 18.4132 6.88395C18.4132 6.96231 18.4125 7.03395 18.4118 7.10642C17.1629 7.49327 15.8058 7.91326 14.4456 8.33463C15.2093 5.38724 16.6408 3.96368 17.8923 3.42669ZM16.3675 1.98326C16.589 1.98326 16.8122 2.05847 17.0258 2.20546C15.381 2.97943 13.618 4.92874 12.8734 8.82148L9.73836 9.79244C10.6104 6.82326 12.6812 1.98326 16.3675 1.98326Z" fill="#95BF46"/>
<path d="M30.5478 8.03194C29.4801 7.95171 28.4124 7.87212 27.3446 7.79317C27.3446 7.79317 25.2204 5.68427 24.9872 5.45084C24.9 5.36399 24.7823 5.31947 24.6593 5.30029L22.9432 40.4007L35.2394 37.7407C35.2394 37.7407 30.9224 8.55481 30.8953 8.35481C30.8678 8.15481 30.6926 8.04413 30.5478 8.03194Z" fill="#5E8E3E"/>
<path d="M18.7677 14.8267L17.2514 19.3371C17.2514 19.3371 15.9229 18.6281 14.2944 18.6281C11.907 18.6281 11.7869 20.1263 11.7869 20.5039C11.7869 22.5639 17.1567 23.3532 17.1567 28.1784C17.1567 31.9747 14.7489 34.4192 11.5024 34.4192C7.60646 34.4192 5.61414 31.9945 5.61414 31.9945L6.65729 28.548C6.65729 28.548 8.70523 30.3062 10.4333 30.3062C11.5625 30.3062 12.0218 29.4171 12.0218 28.7676C12.0218 26.0804 7.61633 25.9606 7.61633 21.5451C7.61633 17.8288 10.2837 14.2325 15.6681 14.2325C17.7428 14.2325 18.7677 14.8267 18.7677 14.8267Z" fill="white"/>
</g>
<defs>
<clipPath id="clip0_176_385">
<rect width="35.07" height="40" fill="white" transform="translate(0.240601 0.5)"/>
</clipPath>
</defs>
</svg>
