<svg width="26" height="39" viewBox="0 0 26 39" fill="none" xmlns="http://www.w3.org/2000/svg">
<path d="M4.10526 0C3.01648 0 1.97229 0.432518 1.2024 1.2024C0.432518 1.97229 0 3.01648 0 4.10526V6.8421H26V4.10526C26 3.01648 25.5675 1.97229 24.7976 1.2024C24.0277 0.432518 22.9835 0 21.8947 0H4.10526ZM4.10526 38.3158C3.01648 38.3158 1.97229 37.8833 1.2024 37.1134C0.432518 36.3435 0 35.2993 0 34.2105V31.4737H26V34.2105C26 35.2993 25.5675 36.3435 24.7976 37.1134C24.0277 37.8833 22.9835 38.3158 21.8947 38.3158H4.10526Z" fill="#7167A4"/>
<path d="M0 5.47363H26V32.8421H0V5.47363Z" fill="#321B41"/>
<path d="M10.263 10.9474C10.263 10.5845 10.4072 10.2364 10.6638 9.97978C10.9204 9.72315 11.2685 9.57898 11.6314 9.57898H14.3683C14.7312 9.57898 15.0793 9.72315 15.3359 9.97978C15.5925 10.2364 15.7367 10.5845 15.7367 10.9474V13.6842C15.7367 14.0472 15.5925 14.3952 15.3359 14.6519C15.0793 14.9085 14.7312 15.0527 14.3683 15.0527H11.6314C11.2685 15.0527 10.9204 14.9085 10.6638 14.6519C10.4072 14.3952 10.263 14.0472 10.263 13.6842V10.9474ZM3.4209 17.7895C3.4209 17.4266 3.56507 17.0785 3.8217 16.8219C4.07833 16.5653 4.42639 16.4211 4.78932 16.4211H7.52616C7.88909 16.4211 8.23715 16.5653 8.49378 16.8219C8.75041 17.0785 8.89458 17.4266 8.89458 17.7895V20.5263C8.89458 20.8893 8.75041 21.2373 8.49378 21.494C8.23715 21.7506 7.88909 21.8948 7.52616 21.8948H4.78932C4.42639 21.8948 4.07833 21.7506 3.8217 21.494C3.56507 21.2373 3.4209 20.8893 3.4209 20.5263V17.7895ZM11.6314 23.2632C11.2685 23.2632 10.9204 23.4074 10.6638 23.664C10.4072 23.9206 10.263 24.2687 10.263 24.6316V27.3685C10.263 27.7314 10.4072 28.0794 10.6638 28.3361C10.9204 28.5927 11.2685 28.7369 11.6314 28.7369H14.3683C14.7312 28.7369 15.0793 28.5927 15.3359 28.3361C15.5925 28.0794 15.7367 27.7314 15.7367 27.3685V24.6316C15.7367 24.2687 15.5925 23.9206 15.3359 23.664C15.0793 23.4074 14.7312 23.2632 14.3683 23.2632H11.6314Z" fill="#00A6ED"/>
<path d="M3.4209 10.9474C3.4209 10.5845 3.56507 10.2364 3.8217 9.97978C4.07833 9.72315 4.42639 9.57898 4.78932 9.57898H7.52616C7.88909 9.57898 8.23715 9.72315 8.49378 9.97978C8.75041 10.2364 8.89458 10.5845 8.89458 10.9474V13.6842C8.89458 14.0472 8.75041 14.3952 8.49378 14.6519C8.23715 14.9085 7.88909 15.0527 7.52616 15.0527H4.78932C4.42639 15.0527 4.07833 14.9085 3.8217 14.6519C3.56507 14.3952 3.4209 14.0472 3.4209 13.6842V10.9474ZM3.4209 24.6316C3.4209 24.2687 3.56507 23.9206 3.8217 23.664C4.07833 23.4074 4.42639 23.2632 4.78932 23.2632H7.52616C7.88909 23.2632 8.23715 23.4074 8.49378 23.664C8.75041 23.9206 8.89458 24.2687 8.89458 24.6316V27.3685C8.89458 27.7314 8.75041 28.0794 8.49378 28.3361C8.23715 28.5927 7.88909 28.7369 7.52616 28.7369H4.78932C4.42639 28.7369 4.07833 28.5927 3.8217 28.3361C3.56507 28.0794 3.4209 27.7314 3.4209 27.3685V24.6316ZM18.4735 16.4211C18.1106 16.4211 17.7625 16.5653 17.5059 16.8219C17.2493 17.0785 17.1051 17.4266 17.1051 17.7895V20.5263C17.1051 20.8893 17.2493 21.2373 17.5059 21.494C17.7625 21.7506 18.1106 21.8948 18.4735 21.8948H21.2104C21.5733 21.8948 21.9214 21.7506 22.178 21.494C22.4346 21.2373 22.5788 20.8893 22.5788 20.5263V17.7895C22.5788 17.4266 22.4346 17.0785 22.178 16.8219C21.9214 16.5653 21.5733 16.4211 21.2104 16.4211H18.4735Z" fill="#FF822D"/>
<path d="M17.1053 10.9474C17.1053 10.5845 17.2495 10.2364 17.5061 9.97978C17.7627 9.72315 18.1108 9.57898 18.4737 9.57898H21.2106C21.5735 9.57898 21.9215 9.72315 22.1782 9.97978C22.4348 10.2364 22.579 10.5845 22.579 10.9474V13.6842C22.579 14.0472 22.4348 14.3952 22.1782 14.6519C21.9215 14.9085 21.5735 15.0527 21.2106 15.0527H18.4737C18.1108 15.0527 17.7627 14.9085 17.5061 14.6519C17.2495 14.3952 17.1053 14.0472 17.1053 13.6842V10.9474ZM10.2632 17.7895C10.2632 17.4266 10.4074 17.0785 10.664 16.8219C10.9206 16.5653 11.2687 16.4211 11.6316 16.4211H14.3684C14.7314 16.4211 15.0794 16.5653 15.3361 16.8219C15.5927 17.0785 15.7369 17.4266 15.7369 17.7895V20.5263C15.7369 20.8893 15.5927 21.2373 15.3361 21.494C15.0794 21.7506 14.7314 21.8948 14.3684 21.8948H11.6316C11.2687 21.8948 10.9206 21.7506 10.664 21.494C10.4074 21.2373 10.2632 20.8893 10.2632 20.5263V17.7895ZM18.4737 23.2632C18.1108 23.2632 17.7627 23.4074 17.5061 23.664C17.2495 23.9206 17.1053 24.2687 17.1053 24.6316V27.3685C17.1053 27.7314 17.2495 28.0794 17.5061 28.3361C17.7627 28.5927 18.1108 28.7369 18.4737 28.7369H21.2106C21.5735 28.7369 21.9215 28.5927 22.1782 28.3361C22.4348 28.0794 22.579 27.7314 22.579 27.3685V24.6316C22.579 24.2687 22.4348 23.9206 22.1782 23.664C21.9215 23.4074 21.5735 23.2632 21.2106 23.2632H18.4737Z" fill="#FCD53F"/>
</svg>
