<svg width="40" height="40" viewBox="0 0 40 40" fill="none" xmlns="http://www.w3.org/2000/svg">
<path d="M30.625 0H9.375C4.19733 0 0 4.19733 0 9.375V30.625C0 35.8027 4.19733 40 9.375 40H30.625C35.8027 40 40 35.8027 40 30.625V9.375C40 4.19733 35.8027 0 30.625 0Z" fill="#777BB3"/>
<path d="M8.7447 22.6207C9.83572 22.6207 10.6498 22.4195 11.165 22.023C11.6752 21.6301 12.0271 20.95 12.2119 20.0016C12.3838 19.1148 12.3181 18.4961 12.0166 18.1617C11.7088 17.8203 11.0427 17.6473 10.0373 17.6473H8.29353L7.32751 22.6207H8.7447ZM3.04197 28.7469C3.00196 28.7468 2.96246 28.7379 2.9263 28.7208C2.89015 28.7037 2.85823 28.6788 2.83283 28.6478C2.80744 28.6169 2.78921 28.5808 2.77944 28.542C2.76968 28.5032 2.76862 28.4627 2.77634 28.4234L5.33767 15.2445C5.34977 15.1829 5.38286 15.1274 5.43129 15.0875C5.47972 15.0475 5.54051 15.0256 5.60329 15.0254H11.1244C12.8595 15.0254 14.151 15.4965 14.9631 16.4258C15.7787 17.3594 16.031 18.6656 15.7119 20.3066C15.5818 20.975 15.3584 21.5957 15.0478 22.152C14.7247 22.7242 14.3122 23.2411 13.8259 23.6832C13.2279 24.2426 12.551 24.6488 11.8154 24.8875C11.092 25.1234 10.1623 25.243 9.05368 25.243H6.81775L6.17947 28.5273C6.16741 28.5892 6.13425 28.6449 6.08565 28.6849C6.03705 28.725 5.97604 28.7469 5.91306 28.7469H3.04197Z" fill="black"/>
<path d="M8.51762 17.9185H10.0375C11.2512 17.9185 11.6727 18.1849 11.8161 18.3439C12.0532 18.6072 12.0985 19.163 11.9454 19.9501C11.7739 20.8318 11.4559 21.4572 11 21.8079C10.5336 22.1673 9.77426 22.3493 8.74496 22.3493H7.65668L8.51762 17.9185ZM11.1247 14.7544H5.60395C5.47805 14.7544 5.35607 14.7982 5.25888 14.8782C5.16168 14.9582 5.09532 15.0695 5.07114 15.1931L2.50981 28.3724C2.49468 28.4509 2.49708 28.5318 2.51682 28.6092C2.53657 28.6867 2.57319 28.7589 2.62405 28.8205C2.67491 28.8822 2.73877 28.9319 2.81105 28.9661C2.88334 29.0002 2.96228 29.018 3.04223 29.0181H5.91332C6.03921 29.018 6.16114 28.9741 6.25826 28.894C6.35538 28.8139 6.42166 28.7026 6.44575 28.579L7.04145 25.5142H9.05356C10.1911 25.5142 11.1489 25.39 11.9 25.1454C12.6723 24.8947 13.3829 24.4693 14.0118 23.881C14.5182 23.4198 14.948 22.8809 15.2848 22.2845C15.6094 21.7036 15.843 21.0552 15.9782 20.3583C16.3141 18.6306 16.0411 17.2474 15.1672 16.2474C14.3016 15.2564 12.9414 14.754 11.1247 14.754V14.7544ZM6.99848 22.8915H8.74496C9.90252 22.8918 10.7645 22.6737 11.3309 22.2372C11.8973 21.8013 12.2799 21.0733 12.4786 20.0532C12.6681 19.0736 12.5816 18.3824 12.2188 17.9798C11.8555 17.5772 11.1284 17.3759 10.0375 17.3759H8.07035L6.99848 22.8915ZM11.125 15.2958C12.786 15.2958 13.9973 15.7318 14.759 16.6036C15.5207 17.4755 15.7499 18.6924 15.4465 20.2544C15.321 20.8982 15.1094 21.4864 14.8118 22.0193C14.5136 22.5526 14.1241 23.0405 13.6434 23.4829C13.0705 24.0194 12.4335 24.4016 11.7325 24.6294C11.0317 24.8575 10.1388 24.9715 9.05395 24.9712H6.59457L5.91371 28.4751H3.04262L5.60434 15.2958H11.125Z" fill="white"/>
<path d="M22.2944 25.2431C22.2544 25.2431 22.2148 25.2343 22.1786 25.2173C22.1424 25.2002 22.1104 25.1754 22.0849 25.1445C22.0595 25.1136 22.0411 25.0774 22.0313 25.0386C22.0215 24.9998 22.0203 24.9593 22.028 24.92L23.1608 19.0888C23.269 18.5341 23.2425 18.1364 23.0866 17.9677C22.9909 17.865 22.7042 17.6927 21.8561 17.6927H19.803L18.3788 25.0239C18.3666 25.0857 18.3333 25.1413 18.2846 25.1812C18.2359 25.2211 18.1749 25.2428 18.112 25.2427H15.2643C15.2243 25.2427 15.1848 25.2339 15.1486 25.2169C15.1124 25.1999 15.0804 25.175 15.0549 25.1442C15.0294 25.1134 15.0111 25.0773 15.0012 25.0386C14.9912 24.9998 14.99 24.9593 14.9975 24.92L17.5593 11.7407C17.5714 11.679 17.6046 11.6234 17.6532 11.5834C17.7018 11.5435 17.7627 11.5216 17.8257 11.5216H20.6733C20.7133 11.5216 20.7528 11.5304 20.789 11.5474C20.8252 11.5644 20.8572 11.5893 20.8827 11.6201C20.9082 11.6509 20.9266 11.687 20.9365 11.7258C20.9464 11.7645 20.9477 11.805 20.9401 11.8443L20.3222 15.0255H22.5304C24.2128 15.0255 25.3534 15.3216 26.0179 15.9322C26.6948 16.5544 26.9065 17.5493 26.646 18.8904L25.4542 25.0239C25.442 25.0856 25.4087 25.1411 25.3602 25.181C25.3116 25.2209 25.2506 25.2427 25.1878 25.2427L22.2944 25.2431Z" fill="black"/>
<path d="M20.6735 11.25H17.8255C17.6995 11.25 17.5775 11.2938 17.4803 11.3739C17.3831 11.454 17.3167 11.5654 17.2926 11.6891L14.7313 24.868C14.7161 24.9465 14.7185 25.0274 14.7382 25.1049C14.7579 25.1825 14.7945 25.2547 14.8454 25.3164C14.8962 25.3781 14.9601 25.4279 15.0325 25.462C15.1048 25.4962 15.1838 25.514 15.2637 25.5141H18.1118C18.2377 25.514 18.3598 25.4702 18.457 25.3901C18.5542 25.31 18.6205 25.1986 18.6446 25.075L20.0262 17.9637H21.8551C22.702 17.9637 22.8801 18.1445 22.8868 18.1527C22.9383 18.2074 23.0059 18.4633 22.8942 19.0371L21.7614 24.868C21.7462 24.9465 21.7486 25.0275 21.7683 25.105C21.788 25.1826 21.8247 25.2548 21.8756 25.3165C21.9265 25.3783 21.9904 25.428 22.0628 25.4621C22.1352 25.4963 22.2142 25.514 22.2942 25.5141H25.188C25.3138 25.5139 25.4358 25.4701 25.5329 25.39C25.63 25.3099 25.6963 25.1986 25.7204 25.075L26.9122 18.9422C27.1915 17.5023 26.9524 16.4227 26.2012 15.7324C25.4841 15.0738 24.2833 14.7539 22.5301 14.7539H20.6512L21.2063 11.8965C21.2216 11.8179 21.2193 11.7369 21.1996 11.6593C21.1799 11.5817 21.1432 11.5094 21.0923 11.4476C21.0414 11.3859 20.9774 11.3361 20.905 11.3019C20.8326 11.2678 20.7536 11.25 20.6735 11.25ZM20.6735 11.793L19.9926 15.2961H22.5301C24.1268 15.2961 25.2279 15.5747 25.8337 16.132C26.4399 16.6888 26.6219 17.5911 26.3798 18.8391L25.1876 24.9715H22.2942L23.4274 19.1402C23.5563 18.477 23.5088 18.0246 23.2848 17.7832C23.0609 17.5421 22.5846 17.4215 21.8559 17.4215H19.579L18.1118 24.9711H15.2633L17.8251 11.7918H20.6735V11.793Z" fill="white"/>
<path d="M31.1525 22.6207C32.2435 22.6207 33.058 22.4195 33.5736 22.023C34.083 21.6301 34.4353 20.95 34.6201 20.0016C34.792 19.1148 34.7267 18.4961 34.4248 18.1617C34.117 17.8203 33.451 17.6473 32.4455 17.6473H30.7021L29.7353 22.6207H31.1525ZM25.451 28.7469C25.4109 28.7469 25.3713 28.7381 25.335 28.721C25.2988 28.704 25.2668 28.6791 25.2413 28.6481C25.2158 28.6172 25.1975 28.581 25.1877 28.5422C25.1779 28.5033 25.1768 28.4628 25.1845 28.4234L27.7459 15.2445C27.758 15.1828 27.7912 15.1272 27.8398 15.0872C27.8884 15.0472 27.9494 15.0254 28.0123 15.0254H33.533C35.2681 15.0254 36.5595 15.4965 37.3713 16.4258C38.1873 17.3594 38.4392 18.6656 38.1201 20.3066C37.998 20.953 37.774 21.5759 37.4564 22.152C37.1332 22.7242 36.7208 23.2411 36.2345 23.6832C35.6369 24.2426 34.9592 24.6488 34.224 24.8875C33.5006 25.1234 32.5709 25.243 31.4619 25.243H29.2263L28.5884 28.5273C28.5764 28.5892 28.5432 28.645 28.4945 28.685C28.4458 28.7251 28.3847 28.7469 28.3217 28.7469H25.451Z" fill="black"/>
<path d="M30.9253 17.9185H32.4453C33.6589 17.9185 34.0804 18.1849 34.2234 18.3439C34.4617 18.6072 34.5062 19.163 34.3535 19.9501C34.1816 20.8318 33.8636 21.4572 33.4078 21.8079C32.941 22.1673 32.1816 22.3493 31.1527 22.3493H30.0644L30.9253 17.9185ZM33.5324 14.7544H28.0117C27.8858 14.7545 27.7639 14.7983 27.6668 14.8783C27.5697 14.9583 27.5034 15.0696 27.4792 15.1931L24.9175 28.3724C24.9024 28.4509 24.9048 28.5318 24.9246 28.6093C24.9443 28.6868 24.981 28.759 25.0319 28.8207C25.0828 28.8824 25.1467 28.9321 25.219 28.9662C25.2914 29.0003 25.3704 29.018 25.4503 29.0181H28.3214C28.4473 29.018 28.5692 28.9741 28.6664 28.894C28.7635 28.8139 28.8298 28.7026 28.8538 28.579L29.4496 25.5142H31.4613C32.5984 25.5142 33.5566 25.39 34.3074 25.1454C35.08 24.8947 35.7906 24.4693 36.4199 23.8806C36.9262 23.4195 37.3558 22.8808 37.6925 22.2845C38.0175 21.7036 38.2503 21.0552 38.3859 20.3583C38.7218 18.6306 38.4492 17.2474 37.5749 16.2474C36.7093 15.2564 35.3496 14.754 33.532 14.754L33.5324 14.7544ZM29.4062 22.8915H31.1523C32.3098 22.8918 33.1721 22.6737 33.739 22.2372C34.3054 21.8013 34.6877 21.0733 34.8859 20.0532C35.0762 19.0736 34.9897 18.3824 34.6261 17.9798C34.2626 17.5772 33.5356 17.3759 32.4453 17.3759H30.4785L29.4062 22.8915ZM33.5324 15.2958C35.1933 15.2958 36.4046 15.7318 37.1663 16.6036C37.9281 17.4755 38.1571 18.6924 37.8535 20.2544C37.7285 20.8982 37.517 21.4864 37.2191 22.0193C36.9212 22.5526 36.5316 23.0405 36.0503 23.4829C35.4774 24.0194 34.8404 24.4016 34.1394 24.6294C33.4389 24.8575 32.5462 24.9715 31.4613 24.9712H29.0023L28.3206 28.4751H25.4496L28.0113 15.2958H33.5324Z" fill="white"/>
</svg>
