<svg width="37" height="42" viewBox="0 0 37 42" fill="none" xmlns="http://www.w3.org/2000/svg">
<path d="M3.77511 37.3333L0.5 0.585205H36.5L33.2205 37.3274L18.4781 41.4148L3.77511 37.3333Z" fill="#1572B6"/>
<path d="M18.5001 38.2913L30.4136 34.9885L33.2163 3.59058H18.5001V38.2913Z" fill="#33A9DC"/>
<path d="M18.5001 16.9039H24.4642L24.8754 12.2887H18.5001V7.78143H29.8012L29.6933 8.99028L28.5865 21.4112H18.5001V16.9039Z" fill="white"/>
<path d="M18.5278 28.6088L18.5074 28.6147L13.4883 27.2586L13.1675 23.6641H8.6427L9.2741 30.7407L18.506 33.3042L18.5278 33.2984V28.6088Z" fill="#EBEBEB"/>
<path d="M24.0807 21.2202L23.5383 27.2556L18.5118 28.6118V33.3013L27.751 30.7407L27.8195 29.9796L28.6026 21.2202H24.0807Z" fill="white"/>
<path d="M18.516 7.78143V12.2887H7.62914L7.53873 11.2753L7.33313 8.99028L7.22522 7.78143H18.516ZM18.5 16.9039V21.4112H13.5436L13.4532 20.3978L13.249 18.1128L13.1411 16.9039H18.5Z" fill="#EBEBEB"/>
</svg>
