<svg width="36" height="39" viewBox="0 0 36 39" fill="none" xmlns="http://www.w3.org/2000/svg">
<mask id="mask0_508_796" style="mask-type:alpha" maskUnits="userSpaceOnUse" x="2" y="3" width="32" height="32">
<path fill-rule="evenodd" clip-rule="evenodd" d="M24.6918 34.6984C24.9464 34.7977 25.2188 34.8435 25.4919 34.833C25.765 34.8225 26.033 34.7559 26.2793 34.6374L32.8675 31.4672C33.2068 31.3039 33.4931 31.0481 33.6934 30.7292C33.8938 30.4104 34 30.0415 34 29.665V8.16926C34.0001 7.79267 33.8938 7.4237 33.6935 7.10483C33.4931 6.78595 33.2068 6.53012 32.8675 6.36677L26.2793 3.19703C25.907 3.0179 25.4882 2.95893 25.081 3.02826C24.6737 3.0976 24.2981 3.29181 24.006 3.58403L11.3936 15.0905L5.90008 10.9203C5.65223 10.7322 5.34638 10.6368 5.03557 10.6506C4.72475 10.6644 4.42855 10.7865 4.19833 10.9958L2.43634 12.5985C2.29903 12.7234 2.18929 12.8756 2.11416 13.0453C2.03902 13.215 2.00014 13.3986 2 13.5842C1.99986 13.7698 2.03846 13.9534 2.11334 14.1232C2.18821 14.2931 2.29772 14.4454 2.43484 14.5705L7.19907 18.917L2.43509 23.2637C2.29804 23.3888 2.1886 23.5412 2.11377 23.711C2.03894 23.8808 2.00037 24.0644 2.00051 24.2499C2.00065 24.4355 2.03951 24.619 2.11459 24.7887C2.18968 24.9584 2.29935 25.1106 2.43659 25.2355L4.19858 26.8382C4.42877 27.0475 4.72495 27.1697 5.03577 27.1835C5.34659 27.1974 5.65245 27.102 5.90033 26.914L11.3938 22.744L24.0063 34.2502C24.2015 34.4453 24.4347 34.5979 24.6918 34.6984ZM26.0048 11.6528L16.435 18.917L26.005 26.1815L26.0048 11.6528Z" fill="white"/>
</mask>
<g mask="url(#mask0_508_796)">
<path d="M32.8676 6.3721L26.2741 3.19711C25.9017 3.01776 25.4827 2.95865 25.0753 3.02799C24.6678 3.09733 24.292 3.29168 23.9999 3.58411L2.41541 23.2638C2.27826 23.3889 2.16873 23.5412 2.09384 23.711C2.01894 23.8808 1.98033 24.0644 1.98047 24.25C1.98061 24.4356 2.0195 24.6191 2.09466 24.7888C2.16981 24.9586 2.27957 25.1107 2.41691 25.2355L4.17991 26.8383C4.41017 27.0479 4.70654 27.1702 5.01758 27.184C5.32863 27.1979 5.63469 27.1023 5.88265 26.914L31.8753 7.19535C32.7473 6.53385 33.9998 7.15585 33.9998 8.25034V8.17384C33.9998 7.79736 33.8936 7.42852 33.6933 7.10974C33.493 6.79097 33.2068 6.53545 32.8676 6.3721Z" fill="#0065A9"/>
<g filter="url(#filter0_d_508_796)">
<path d="M32.8676 31.4624L26.2741 34.6369C25.9017 34.8163 25.4828 34.8755 25.0754 34.8062C24.6679 34.737 24.292 34.5427 23.9999 34.2504L2.41541 14.5705C2.27826 14.4454 2.16873 14.2931 2.09384 14.1233C2.01894 13.9534 1.98033 13.7699 1.98047 13.5843C1.98061 13.3987 2.0195 13.2151 2.09466 13.0454C2.16981 12.8757 2.27957 12.7236 2.41691 12.5987L4.17991 10.996C4.41017 10.7864 4.70654 10.6641 5.01758 10.6502C5.32863 10.6364 5.63469 10.7319 5.88265 10.9202L31.8753 30.6387C32.7473 31.3004 33.9998 30.6784 33.9998 29.5839V29.6604C33.9998 30.0369 33.8936 30.4057 33.6933 30.7245C33.493 31.0433 33.2068 31.2991 32.8676 31.4624Z" fill="#007ACC"/>
</g>
<g filter="url(#filter1_d_508_796)">
<path d="M26.2745 34.6375C25.902 34.8165 25.483 34.8754 25.0756 34.806C24.6681 34.7367 24.2923 34.5425 24 34.2502C24.738 34.9882 26 34.4655 26 33.4217V4.41208C26 3.36834 24.738 2.84559 24 3.58384C24.2923 3.29163 24.6681 3.09743 25.0756 3.02806C25.483 2.95869 25.902 3.01758 26.2745 3.19659L32.8667 6.36708C33.2062 6.53032 33.4927 6.78611 33.6931 7.10499C33.8936 7.42388 34 7.7929 34 8.16957V29.665C34 30.0417 33.8936 30.4107 33.6931 30.7296C33.4927 31.0485 33.2062 31.3043 32.8667 31.4675L26.2745 34.6375Z" fill="#1F9CF0"/>
</g>
<path opacity="0.25" fill-rule="evenodd" clip-rule="evenodd" d="M24.6724 34.6983C24.927 34.7975 25.1993 34.8433 25.4723 34.8328C25.7454 34.8223 26.0134 34.7558 26.2596 34.6373L32.8478 31.4671C33.1872 31.3037 33.4735 31.0479 33.6738 30.729C33.8742 30.4101 33.9804 30.0412 33.9803 29.6646V8.16914C33.9804 7.79255 33.8742 7.42358 33.6738 7.1047C33.4735 6.78583 33.1872 6.52999 32.8478 6.36665L26.2596 3.19691C25.8873 3.01778 25.4686 2.95881 25.0613 3.02814C24.6541 3.09747 24.2784 3.29169 23.9864 3.5839L11.3739 15.0904L5.88043 10.9204C5.63258 10.7323 5.32673 10.6369 5.01591 10.6507C4.7051 10.6645 4.4089 10.7866 4.17868 10.9959L2.41669 12.5986C2.27941 12.7235 2.1697 12.8757 2.09459 13.0454C2.01948 13.2152 1.98061 13.3987 1.98047 13.5843C1.98033 13.7699 2.01892 13.9535 2.09377 14.1233C2.16863 14.2932 2.2781 14.4455 2.41519 14.5706L7.17942 18.9169L2.41544 23.2633C2.27831 23.3884 2.16881 23.5408 2.09394 23.7106C2.01906 23.8805 1.98046 24.0641 1.9806 24.2497C1.98074 24.4353 2.01962 24.6188 2.09476 24.7886C2.16989 24.9583 2.27962 25.1105 2.41694 25.2353L4.17893 26.8381C4.40912 27.0474 4.7053 27.1696 5.01612 27.1834C5.32694 27.1972 5.6328 27.1019 5.88068 26.9138L11.3744 22.7436L23.9869 34.2501C24.182 34.4452 24.4154 34.5978 24.6724 34.6983ZM25.9854 11.6524L16.4154 18.9169L25.9854 26.1811V11.6524Z" fill="url(#paint0_linear_508_796)"/>
</g>
<defs>
<filter id="filter0_d_508_796" x="0.938719" y="9.60718" width="34.1028" height="26.269" filterUnits="userSpaceOnUse" color-interpolation-filters="sRGB">
<feFlood flood-opacity="0" result="BackgroundImageFix"/>
<feColorMatrix in="SourceAlpha" type="matrix" values="0 0 0 0 0 0 0 0 0 0 0 0 0 0 0 0 0 0 127 0" result="hardAlpha"/>
<feOffset/>
<feGaussianBlur stdDeviation="0.520875"/>
<feColorMatrix type="matrix" values="0 0 0 0 0 0 0 0 0 0 0 0 0 0 0 0 0 0 0.25 0"/>
<feBlend mode="overlay" in2="BackgroundImageFix" result="effect1_dropShadow_508_796"/>
<feBlend mode="normal" in="SourceGraphic" in2="effect1_dropShadow_508_796" result="shape"/>
</filter>
<filter id="filter1_d_508_796" x="22.9583" y="1.95801" width="12.0835" height="33.9181" filterUnits="userSpaceOnUse" color-interpolation-filters="sRGB">
<feFlood flood-opacity="0" result="BackgroundImageFix"/>
<feColorMatrix in="SourceAlpha" type="matrix" values="0 0 0 0 0 0 0 0 0 0 0 0 0 0 0 0 0 0 127 0" result="hardAlpha"/>
<feOffset/>
<feGaussianBlur stdDeviation="0.520875"/>
<feColorMatrix type="matrix" values="0 0 0 0 0 0 0 0 0 0 0 0 0 0 0 0 0 0 0.25 0"/>
<feBlend mode="overlay" in2="BackgroundImageFix" result="effect1_dropShadow_508_796"/>
<feBlend mode="normal" in="SourceGraphic" in2="effect1_dropShadow_508_796" result="shape"/>
</filter>
<linearGradient id="paint0_linear_508_796" x1="17.9804" y1="2.99941" x2="17.9804" y2="34.8343" gradientUnits="userSpaceOnUse">
<stop stop-color="white"/>
<stop offset="1" stop-color="white" stop-opacity="0"/>
</linearGradient>
</defs>
</svg>
