<svg width="37" height="42" viewBox="0 0 37 42" fill="none" xmlns="http://www.w3.org/2000/svg">
<path d="M3.77631 37.332L0.5 0.586884H36.5L33.2193 37.3261L18.4781 41.4131L3.77631 37.332Z" fill="#E44F26"/>
<path d="M18.5 38.2899L30.4125 34.9874L33.2149 3.59201H18.5V38.2899Z" fill="#F1662A"/>
<path d="M18.5001 17.2192H12.5365L12.1253 12.6044H18.5001V8.09744H7.19995L7.30785 9.30765L8.41453 21.7261H18.5001V17.2192ZM18.5001 28.9232L18.4797 28.929L13.4609 27.5745L13.1402 23.9803H8.61575L9.2471 31.0549L18.4797 33.6182L18.5001 33.6124V28.9232Z" fill="#EBEBEB"/>
<path d="M18.4839 17.2192V21.7261H24.0333L23.5113 27.5716L18.4839 28.9276V33.6168L27.7237 31.0549L27.7908 30.2938L28.8494 18.4294L28.9602 17.2192H27.7456H18.4839ZM18.4839 8.09744V12.6044H29.3699L29.4603 11.5925L29.6659 9.30765L29.7738 8.09744H18.4839Z" fill="white"/>
</svg>
