<svg width="40" height="40" viewBox="0 0 40 40" fill="none" xmlns="http://www.w3.org/2000/svg">
<path d="M0 4C0 1.79086 1.79086 0 4 0H36C38.2091 0 40 1.79086 40 4V36C40 38.2091 38.2091 40 36 40H4C1.79086 40 0 38.2091 0 36V4Z" fill="#F5DE19"/>
<path d="M26.8699 31.25C27.2108 31.9423 27.7403 32.5242 28.3974 32.9286C29.0546 33.333 29.8126 33.5434 30.5842 33.5357C32.1414 33.5357 33.1371 32.7571 33.1371 31.6786C33.1371 30.3929 32.1142 29.9329 30.3999 29.1829L29.4599 28.78C26.7457 27.6243 24.9457 26.1771 24.9457 23.1171C24.9457 20.2986 27.0885 18.1514 30.4499 18.1514C31.5381 18.0728 32.6253 18.3164 33.5759 18.8517C34.5266 19.3869 35.2986 20.1903 35.7957 21.1614L32.8571 23.04C32.6657 22.5585 32.3324 22.1465 31.9015 21.8587C31.4706 21.5709 30.9624 21.4209 30.4442 21.4286C30.2182 21.4059 29.9899 21.4306 29.7739 21.5011C29.5579 21.5716 29.359 21.6863 29.1898 21.8379C29.0206 21.9895 28.8848 22.1747 28.7911 22.3816C28.6974 22.5886 28.6479 22.8128 28.6457 23.04C28.6457 24.1671 29.3442 24.6243 30.9571 25.3257L31.8971 25.7286C35.0914 27.0986 36.8971 28.4943 36.8971 31.6329C36.8971 35.0171 34.2385 36.8714 30.6685 36.8714C29.2775 36.9601 27.8906 36.6442 26.6751 35.9621C25.4596 35.28 24.4675 34.2606 23.8185 33.0271L26.8699 31.25ZM13.5914 31.5757C14.1814 32.6229 14.7185 33.5086 16.0099 33.5086C17.2442 33.5086 18.0242 33.0257 18.0242 31.1471V18.3657H21.7828V31.1971C21.7828 35.0886 19.4971 36.86 16.1699 36.86C14.9939 36.9243 13.8259 36.6312 12.8195 36.0193C11.8131 35.4073 11.0155 34.5052 10.5314 33.4314L13.5914 31.5757Z" fill="black"/>
</svg>
