<svg width="40" height="40" viewBox="0 0 40 40" fill="none" xmlns="http://www.w3.org/2000/svg">
<path d="M0 0H33.6C35.2974 0 36.9253 0.674284 38.1255 1.87452C39.3257 3.07475 40 4.70261 40 6.4V33.6C40 35.2974 39.3257 36.9253 38.1255 38.1255C36.9253 39.3257 35.2974 40 33.6 40H6.4C4.70261 40 3.07475 39.3257 1.87452 38.1255C0.674284 36.9253 0 35.2974 0 33.6V0Z" fill="#663399"/>
<path d="M10.1199 32.6799V25.9599C10.1199 23.2799 11.8399 21.8399 14.4399 21.8399C16.9999 21.7999 18.5999 23.4799 18.5199 26.3199H15.5599C15.6399 25.2399 15.1599 24.4399 14.3599 24.4799C13.3599 24.4799 13.0799 25.1599 13.0799 26.4399V32.2799C13.0799 33.5199 13.4799 34.1199 14.3599 34.1599C15.2799 34.1599 15.6399 33.2399 15.5599 32.1999H18.5199C18.6799 35.1199 16.8399 36.8399 14.2399 36.7999C11.7199 36.7999 10.1199 35.3999 10.1199 32.6799ZM19.5999 32.1999H22.3599C22.3999 33.4799 22.7999 34.2799 23.6799 34.2799C24.5599 34.2799 24.8799 33.7599 24.8799 32.5599C24.8799 31.5599 24.4399 30.9999 23.3599 30.4799L22.3199 29.9999C20.4799 29.1199 19.7199 28.0399 19.7199 25.8799C19.7199 23.4799 21.2399 21.7999 23.7199 21.7999C26.1999 21.7999 27.5199 23.5199 27.5599 26.3199H24.8799C24.8799 25.1599 24.6399 24.3599 23.7599 24.3599C22.9599 24.3599 22.5599 24.7599 22.5599 25.7599C22.5599 26.7599 22.9199 27.1599 23.8799 27.5599L24.8399 27.9999C26.8799 28.9599 27.7599 30.1999 27.7599 32.5199C27.7599 35.2799 26.1999 36.7999 23.6399 36.7999C21.0799 36.7999 19.6399 35.0399 19.5999 32.1999ZM28.6399 32.1999H31.4399C31.4399 33.4799 31.8799 34.2799 32.7199 34.2799C33.5599 34.2799 33.9199 33.7599 33.9199 32.5599C33.9199 31.5599 33.5199 30.9999 32.3999 30.4799L31.3599 29.9999C29.5199 29.1199 28.7999 28.0399 28.7999 25.8799C28.7999 23.4799 30.2799 21.7999 32.7999 21.7999C35.3199 21.7999 36.5599 23.5199 36.6399 26.3199H33.9599C33.9199 25.1599 33.6799 24.3599 32.7999 24.3599C31.9999 24.3599 31.6399 24.7599 31.6399 25.7599C31.6399 26.7599 31.9599 27.1599 32.9199 27.5599L33.9199 27.9999C35.9199 28.9599 36.7999 30.1999 36.7999 32.5199C36.7999 35.2799 35.2399 36.7999 32.6799 36.7999C30.1199 36.7999 28.6799 35.0399 28.6399 32.1999Z" fill="white"/>
</svg>
