<svg width="41" height="41" viewBox="0 0 41 41" fill="none" xmlns="http://www.w3.org/2000/svg">
<g clip-path="url(#clip0_176_374)">
<path d="M31.4006 0.5H10.1506C4.97297 0.5 0.775635 4.69733 0.775635 9.875V31.125C0.775635 36.3027 4.97297 40.5 10.1506 40.5H31.4006C36.5783 40.5 40.7756 36.3027 40.7756 31.125V9.875C40.7756 4.69733 36.5783 0.5 31.4006 0.5Z" fill="#0073AA"/>
<path d="M7.37159 20.4991C7.37159 25.8045 10.4549 30.3895 14.9258 32.5624L8.53205 15.0442C7.76561 16.7606 7.37016 18.6194 7.37159 20.4991ZM29.8238 19.8227C29.8238 18.1663 29.2288 17.0191 28.7185 16.1261C28.0389 15.022 27.4021 14.087 27.4021 12.983C27.4021 11.7508 28.3366 10.6039 29.6528 10.6039C29.7124 10.6039 29.7686 10.6113 29.8266 10.6145C27.4419 8.42985 24.2649 7.09595 20.7752 7.09595C16.0927 7.09595 11.9728 9.49845 9.57627 13.1375C9.89065 13.1469 10.1871 13.1536 10.4388 13.1536C11.8408 13.1536 14.011 12.9833 14.011 12.9833C14.7335 12.9408 14.8188 14.002 14.0969 14.0875C14.0969 14.0875 13.3708 14.173 12.5628 14.2153L17.4438 28.7338L20.3771 19.9364L18.2888 14.2149C17.5671 14.1725 16.8833 14.087 16.8833 14.087C16.161 14.0447 16.2456 12.9403 16.968 12.983C16.968 12.983 19.1814 13.153 20.4985 13.153C21.9003 13.153 24.0706 12.983 24.0706 12.983C24.7938 12.9403 24.8786 14.0016 24.1566 14.087C24.1566 14.087 23.4289 14.1725 22.6225 14.2149L27.4664 28.6233L28.8033 24.1558C29.3828 22.3017 29.8238 20.9702 29.8238 19.8227Z" fill="white"/>
<path d="M21.0105 21.6715L16.9889 33.3575C18.2184 33.7196 19.4935 33.9035 20.7753 33.9036C22.2913 33.9041 23.7963 33.6472 25.2262 33.1437C25.189 33.0851 25.1571 33.0233 25.1309 32.959L21.0105 21.6715ZM32.5364 14.0684C32.5974 14.5253 32.6275 14.9857 32.6267 15.4465C32.6267 16.8067 32.3726 18.3358 31.6075 20.2476L27.5133 32.085C31.4981 29.7612 34.1784 25.4442 34.1784 20.4994C34.1786 18.1689 33.5834 15.9775 32.5364 14.0684Z" fill="white"/>
<path d="M20.7753 4.875C12.16 4.875 5.15063 11.8839 5.15063 20.4991C5.15063 29.1153 12.16 36.1239 20.7753 36.1239C29.3902 36.1239 36.4006 29.1153 36.4006 20.4991C36.4003 11.8839 29.3902 4.875 20.7753 4.875ZM20.7753 35.4078C12.555 35.4078 5.86704 28.7197 5.86704 20.4991C5.86704 12.2789 12.5549 5.59141 20.7753 5.59141C28.9952 5.59141 35.6827 12.2789 35.6827 20.4991C35.6827 28.7197 28.9952 35.4078 20.7753 35.4078Z" fill="white"/>
</g>
<defs>
<clipPath id="clip0_176_374">
<rect width="40" height="40" fill="white" transform="translate(0.775635 0.5)"/>
</clipPath>
</defs>
</svg>
