<svg width="40" height="41" viewBox="0 0 40 41" fill="none" xmlns="http://www.w3.org/2000/svg">
<path d="M40 21.0002C40 25.4683 38.728 29.4863 36.184 33.0543C33.642 36.6223 30.356 39.0903 26.328 40.4603C25.86 40.5503 25.516 40.4883 25.3 40.2743C25.1934 40.1706 25.1095 40.046 25.0534 39.9083C24.9973 39.7707 24.9702 39.6229 24.974 39.4743V33.8403C24.974 32.1143 24.522 30.8502 23.62 30.0502C24.5211 29.9598 25.4138 29.7993 26.29 29.5702C27.078 29.3562 27.894 29.0103 28.736 28.5303C29.5455 28.0773 30.2616 27.4746 30.846 26.7542C31.41 26.0502 31.87 25.1163 32.226 23.9503C32.582 22.7843 32.76 21.4462 32.76 19.9342C32.76 17.7803 32.074 15.9463 30.704 14.4343C31.344 12.8143 31.276 11.0003 30.494 8.98825C30.008 8.82825 29.306 8.92825 28.386 9.28225C27.5515 9.59573 26.7491 9.98888 25.99 10.4563L25 11.0963C23.3739 10.6327 21.6908 10.3997 20 10.4043C18.3091 10.4004 16.626 10.634 15 11.0983C14.6383 10.8477 14.2695 10.6076 13.894 10.3783C13.434 10.0923 12.708 9.75025 11.718 9.35025C10.73 8.95025 9.982 8.83025 9.478 8.99025C8.716 11.0003 8.654 12.8143 9.298 14.4343C7.926 15.9463 7.238 17.7803 7.238 19.9342C7.238 21.4462 7.418 22.7803 7.774 23.9382C8.13 25.0942 8.586 26.0282 9.14 26.7402C9.71447 27.4681 10.4267 28.0757 11.236 28.5282C12.078 29.0082 12.896 29.3563 13.684 29.5683C14.474 29.7843 15.364 29.9442 16.354 30.0502C15.66 30.6902 15.234 31.6083 15.078 32.8003C14.7051 32.9809 14.3115 33.1152 13.906 33.2003C13.4173 33.2962 12.92 33.3411 12.422 33.3343C11.848 33.3343 11.282 33.1423 10.716 32.7603C10.152 32.3762 9.67 31.8202 9.27 31.0922C8.95753 30.5417 8.52644 30.0675 8.008 29.7043C7.496 29.3482 7.066 29.1342 6.718 29.0642L6.198 28.9842C5.834 28.9842 5.582 29.0243 5.442 29.1042C5.302 29.1842 5.262 29.2843 5.312 29.4102C5.37082 29.5459 5.4497 29.672 5.546 29.7843C5.64591 29.9043 5.76008 30.0118 5.886 30.1042L6.066 30.2362C6.45 30.4163 6.826 30.7543 7.2 31.2523C7.574 31.7502 7.848 32.2043 8.02 32.6123L8.28 33.2263C8.506 33.9023 8.888 34.4503 9.428 34.8683C9.966 35.2882 10.548 35.5543 11.172 35.6683C11.796 35.7843 12.4 35.8483 12.982 35.8563C13.562 35.8643 14.046 35.8343 14.428 35.7623L15.026 35.6562C15.026 36.3322 15.03 37.1243 15.04 38.0323L15.052 39.4723C15.052 39.7923 14.94 40.0602 14.712 40.2723C14.488 40.4883 14.14 40.5503 13.672 40.4603C9.644 39.0903 6.358 36.6203 3.816 33.0543C1.272 29.4863 0 25.4683 0 21.0002C0 17.2803 0.894 13.8523 2.682 10.7103C4.41297 7.62856 6.9235 5.05595 9.962 3.25025C12.991 1.42688 16.4646 0.475242 20 0.50025C23.5361 0.474873 27.0104 1.42652 30.04 3.25025C33.0778 5.05623 35.5876 7.62881 37.318 10.7103C39.106 13.8503 40 17.2822 40 21.0002Z" fill="white"/>
</svg>
