<svg width="40" height="41" viewBox="0 0 40 41" fill="none" xmlns="http://www.w3.org/2000/svg">
<path d="M39.2454 18.7184L21.7809 1.25455C20.7758 0.248809 19.1446 0.248809 18.1379 1.25455L14.5117 4.88142L19.112 9.48171C20.1814 9.12079 21.407 9.36288 22.2591 10.2149C23.1156 11.0724 23.3558 12.3085 22.986 13.3814L27.4196 17.8153C28.4922 17.4455 29.7302 17.6845 30.5864 18.5425C31.7841 19.7394 31.7841 21.6795 30.5864 22.877C30.3017 23.1618 29.9638 23.3877 29.5918 23.5418C29.2198 23.6959 28.8212 23.7752 28.4185 23.7752C28.0159 23.7752 27.6172 23.6959 27.2452 23.5418C26.8733 23.3877 26.5353 23.1618 26.2507 22.877C25.8231 22.449 25.5317 21.9042 25.413 21.311C25.2943 20.7178 25.3537 20.1027 25.5837 19.5432L21.4492 15.4087L21.4485 26.2903C21.7485 26.438 22.0224 26.6336 22.2594 26.8695C23.4565 28.0663 23.4565 30.0059 22.2594 31.2052C21.062 32.402 19.1211 32.402 17.925 31.2052C16.7278 30.0062 16.7278 28.0666 17.925 26.8695C18.212 26.5826 18.5531 26.3553 18.9285 26.2009V15.2186C18.5527 15.0648 18.2115 14.8374 17.925 14.5497C17.0181 13.6434 16.7998 12.3126 17.2649 11.1985L12.7296 6.66317L0.754526 18.6376C0.271403 19.1209 0 19.7762 0 20.4596C0 21.1429 0.271403 21.7983 0.754526 22.2816L18.2193 39.7454C19.2251 40.7512 20.8557 40.7512 21.863 39.7454L39.2457 22.3627C39.7288 21.8793 40.0001 21.2239 40 20.5405C39.9999 19.8571 39.7285 19.2017 39.2454 18.7184Z" fill="#F34F29"/>
</svg>
