<svg width="37" height="39" viewBox="0 0 37 39" fill="none" xmlns="http://www.w3.org/2000/svg">
<path d="M30.4214 13.696C30.0276 13.5606 29.6305 13.4351 29.2304 13.3197C29.2976 13.0444 29.3595 12.7725 29.4144 12.5053C30.316 8.11804 29.7266 4.58357 27.7134 3.41985C25.7832 2.30424 22.6265 3.46752 19.4384 6.24888C19.1242 6.52347 18.817 6.80599 18.5171 7.09616C18.3162 6.90322 18.1119 6.71401 17.9041 6.52865C14.5628 3.55474 11.2137 2.30134 9.20274 3.46839C7.27426 4.58748 6.70321 7.91013 7.5149 12.068C7.59566 12.4798 7.68684 12.8895 7.78836 13.2967C7.31429 13.4317 6.85685 13.5754 6.41907 13.7284C2.50169 15.0976 0 17.2432 0 19.4688C0 21.7674 2.68568 24.0729 6.7658 25.4709C7.09659 25.5838 7.43013 25.6884 7.7661 25.7846C7.65702 26.2231 7.56015 26.6646 7.47559 27.1086C6.70177 31.1943 7.30605 34.4384 9.22933 35.5504C11.2158 36.6988 14.5498 35.5185 17.7961 32.6737C18.0594 32.4424 18.3168 32.2046 18.5682 31.9605C18.8931 32.2747 19.2266 32.5797 19.5684 32.8753C22.7131 35.5878 25.8188 36.6831 27.7402 35.5681C29.7247 34.4164 30.3698 30.9313 29.5324 26.6913C29.4664 26.3591 29.3924 26.0286 29.3105 25.7C29.5446 25.6304 29.7745 25.5589 29.9985 25.4844C34.2402 24.0757 37 21.7981 37 19.4688C37 17.2351 34.4175 15.075 30.4214 13.696ZM29.5014 23.9805C29.2989 24.0475 29.0917 24.1125 28.8799 24.1754C28.4117 22.6893 27.7798 21.1092 27.0064 19.4764C27.7444 17.8827 28.352 16.3227 28.8071 14.8464C29.1856 14.9562 29.5529 15.0719 29.907 15.1941C33.3309 16.3758 35.4194 18.1226 35.4194 19.4688C35.4194 20.9025 33.1639 22.7639 29.5014 23.9805ZM27.9818 26.999C28.3521 28.8738 28.4049 30.569 28.1596 31.8943C27.9393 33.0851 27.4962 33.8789 26.9481 34.1969C25.7822 34.8735 23.2886 33.9941 20.5993 31.6742C20.2814 31.3994 19.9712 31.1158 19.669 30.8237C20.7116 29.6807 21.7535 28.352 22.7705 26.8762C24.5592 26.7171 26.249 26.4569 27.7815 26.1017C27.8571 26.4072 27.9239 26.7063 27.9818 26.999ZM12.6141 34.08C11.4749 34.4832 10.5675 34.4948 10.0191 34.1778C8.85196 33.5031 8.36677 30.8982 9.02858 27.4041C9.10725 26.9912 9.19733 26.5806 9.29871 26.1727C10.8143 26.5089 12.4918 26.7505 14.2847 26.8963C15.3086 28.3404 16.3806 29.6677 17.461 30.8299C17.2314 31.0526 16.9963 31.2696 16.7561 31.4807C15.3205 32.7386 13.8819 33.6311 12.6141 34.08ZM7.27715 23.9716C5.47296 23.3534 3.98299 22.55 2.96173 21.6733C2.04396 20.8856 1.58074 20.1034 1.58074 19.4688C1.58074 18.1181 3.58929 16.3955 6.93938 15.2246C7.34595 15.0827 7.77145 14.9486 8.21299 14.8229C8.67607 16.3326 9.28339 17.9111 10.0163 19.5073C9.27385 21.1271 8.65786 22.7309 8.1903 24.2584C7.88362 24.1703 7.57915 24.0747 7.27715 23.9716ZM9.06616 11.7636C8.37082 8.20135 8.83259 5.51416 9.99477 4.83972C11.2325 4.12138 13.9697 5.14558 16.8547 7.71352C17.0428 7.88134 17.2279 8.05258 17.4098 8.22714C16.3348 9.38433 15.2726 10.7018 14.2579 12.1373C12.5177 12.299 10.852 12.5586 9.32053 12.9065C9.22616 12.5278 9.14134 12.1466 9.06616 11.7636ZM25.0263 15.7145C24.6646 15.0882 24.2894 14.4697 23.9011 13.8595C25.0817 14.0092 26.2128 14.2078 27.2749 14.4507C26.9561 15.4753 26.5586 16.5464 26.0908 17.6447C25.7488 16.9942 25.3939 16.3507 25.0263 15.7145ZM18.5178 9.3597C19.2468 10.1515 19.977 11.0354 20.6951 11.9946C19.2383 11.9256 17.779 11.9253 16.3221 11.9937C17.041 11.0434 17.7773 10.1606 18.5178 9.3597ZM11.9675 15.7252C11.6045 16.3563 11.2562 16.9958 10.9229 17.6432C10.4628 16.5489 10.0689 15.4728 9.74733 14.4337C10.803 14.197 11.9287 14.0034 13.1018 13.8565C12.7091 14.4704 12.331 15.0936 11.9675 15.7252ZM13.1354 25.1936C11.9235 25.058 10.7809 24.8744 9.72551 24.6441C10.0521 23.5864 10.4547 22.4874 10.9248 21.3697C11.2594 22.0175 11.6091 22.6574 11.9737 23.2888C12.3486 23.9379 12.7368 24.5736 13.1354 25.1936ZM18.5614 29.6894C17.8122 28.8792 17.0649 27.9828 16.3352 27.0187C17.0437 27.0465 17.7659 27.0607 18.5 27.0607C19.2542 27.0607 19.9997 27.0438 20.7334 27.011C20.013 27.9925 19.2855 28.8902 18.5614 29.6894ZM26.1057 21.3126C26.6003 22.4427 27.0171 23.5358 27.3481 24.5754C26.2753 24.8208 25.1171 25.0184 23.8967 25.1652C24.2877 24.5437 24.6664 23.9145 25.0325 23.2779C25.4048 22.6309 25.7626 21.9756 26.1057 21.3126ZM23.6634 22.4863C23.1029 23.4623 22.5109 24.4197 21.8884 25.3572C20.7607 25.4373 19.6305 25.4771 18.5 25.4764C17.3485 25.4764 16.2285 25.4405 15.1501 25.3704C14.5112 24.4351 13.908 23.476 13.3415 22.495C12.7777 21.5192 12.2512 20.5223 11.763 19.5064C12.25 18.4903 12.775 17.493 13.3369 16.5164L13.3368 16.5166C13.8984 15.5398 14.4968 14.5847 15.1308 13.6535C16.2311 13.5701 17.3595 13.5266 18.4999 13.5266C19.6454 13.5266 20.7754 13.5705 21.8754 13.6545C22.503 14.5844 23.0976 15.5361 23.6582 16.508C24.2219 17.4824 24.7538 18.4749 25.2532 19.484C24.7589 20.5033 24.2287 21.5047 23.6634 22.4863ZM26.924 4.79235C28.1629 5.50866 28.6448 8.39723 27.8663 12.1852C27.8164 12.4271 27.761 12.6729 27.7001 12.9227C26.1649 12.5675 24.498 12.3033 22.7528 12.1392C21.7362 10.6879 20.6827 9.3684 19.6252 8.22612C19.9023 7.95831 20.1861 7.69744 20.4762 7.44374C23.2078 5.06082 25.7608 4.11994 26.924 4.79235ZM18.5 16.1567C20.3247 16.1567 21.804 17.6396 21.804 19.4688C21.804 21.2979 20.3247 22.7808 18.5 22.7808C16.6753 22.7808 15.196 21.2979 15.196 19.4688C15.196 17.6396 16.6753 16.1567 18.5 16.1567Z" fill="#00D8FF"/>
</svg>
