<svg width="40" height="40" viewBox="0 0 40 40" fill="none" xmlns="http://www.w3.org/2000/svg">
<path d="M30.625 0H9.375C4.19733 0 0 4.19733 0 9.375V30.625C0 35.8027 4.19733 40 9.375 40H30.625C35.8027 40 40 35.8027 40 30.625V9.375C40 4.19733 35.8027 0 30.625 0Z" fill="#F4F2ED"/>
<mask id="mask0_132_456" style="mask-type:luminance" maskUnits="userSpaceOnUse" x="5" y="5" width="30" height="30">
<path d="M5.9375 5.9375H34.0625V34.0625H5.9375V5.9375Z" fill="white"/>
</mask>
<g mask="url(#mask0_132_456)">
<path fill-rule="evenodd" clip-rule="evenodd" d="M31.844 27.8453C30.3143 27.8028 29.1276 27.9596 28.1331 28.378C27.8467 28.493 27.3871 28.493 27.3493 28.8535C27.5024 29.0047 27.5209 29.2522 27.6551 29.4619C27.8843 29.8424 28.2865 30.3549 28.6496 30.6208L29.8737 31.4955C30.6196 31.9513 31.4612 32.2177 32.1879 32.6739C32.6088 32.9402 33.0295 33.2824 33.4504 33.5678C33.6648 33.7199 33.7946 33.9675 34.0626 34.0621V34.0046C33.9288 33.8341 33.8902 33.5871 33.757 33.3961L33.1824 32.8452C32.6282 32.1039 31.9392 31.4571 31.1932 30.9253C30.581 30.5071 29.2426 29.9369 28.9938 29.2339L28.9562 29.1913C29.3763 29.1488 29.8737 29.0008 30.2757 28.8867C30.9265 28.7163 31.519 28.7538 32.1879 28.5828L33.1067 28.3166V28.1461C32.7623 27.8041 32.5137 27.3477 32.1506 27.0249C31.1752 26.1885 30.1034 25.3708 28.9938 24.6866C28.401 24.3066 27.6357 24.0589 27.0046 23.7364C26.7745 23.6222 26.3924 23.5652 26.2587 23.3752C25.9135 22.9577 25.7227 22.4058 25.4742 21.9113L23.9059 18.6038C23.5617 17.8624 23.3507 17.121 22.9306 16.4367C20.9601 13.205 18.8174 11.2474 15.5274 9.32705C14.8201 8.92783 13.9785 8.75611 13.0837 8.54736L11.6493 8.4708C11.3427 8.33783 11.037 7.97643 10.7692 7.80518C9.67884 7.1208 6.86697 5.6383 6.0629 7.59221C5.5465 8.82768 6.82837 10.0441 7.26353 10.6717C7.58931 11.1089 8.00947 11.603 8.23962 12.0974C8.36822 12.4203 8.41118 12.7628 8.5454 13.105C8.85103 13.9413 9.13822 14.8731 9.53993 15.6528C9.75431 16.0521 9.97947 16.4708 10.2473 16.8317C10.4004 17.0447 10.6684 17.136 10.7254 17.478C10.4574 17.8585 10.439 18.4281 10.2859 18.9041C9.59697 21.0522 9.86493 23.7135 10.8402 25.295C11.1468 25.77 11.8692 26.816 12.8493 26.4164C13.7101 26.0742 13.5181 24.9908 13.7667 24.0402C13.8245 23.8124 13.786 23.6602 13.9004 23.5077V23.5503L14.6849 25.128C15.2779 26.0594 16.3112 27.0291 17.1715 27.6758C17.6302 28.018 17.9938 28.6077 18.5674 28.8164V28.7589H18.5298C18.4148 28.5885 18.2424 28.5117 18.0895 28.3788C17.7452 28.0367 17.3627 27.6183 17.0948 27.2383C16.2918 26.1739 15.5845 24.995 14.9529 23.7786C14.6465 23.1894 14.3785 22.543 14.1307 21.9538C14.0149 21.7255 14.0149 21.3828 13.8242 21.2696C13.5368 21.6871 13.1168 22.0492 12.9054 22.5622C12.5418 23.3794 12.5042 24.3871 12.3704 25.4327C12.2932 25.4517 12.3274 25.4327 12.2932 25.4752C11.6818 25.3236 11.4709 24.6955 11.2417 24.1638C10.6679 22.8141 10.5718 20.6471 11.0692 19.0881C11.2029 18.6889 11.7774 17.4342 11.5481 17.0541C11.4324 16.6928 11.0507 16.4841 10.8398 16.1986C10.5912 15.8374 10.3242 15.3814 10.1518 14.9822C9.69306 13.9171 9.46368 12.7389 8.96587 11.6744C8.73572 11.18 8.33447 10.6666 8.009 10.2108C7.6454 9.69736 7.24462 9.33596 6.95743 8.72799C6.86181 8.51502 6.72806 8.17674 6.88103 7.9483C6.91884 7.79627 6.99587 7.73533 7.14822 7.70127C7.39665 7.48815 8.10509 7.7583 8.35368 7.87158C9.06103 8.15705 9.654 8.42299 10.247 8.82174C10.5149 9.01174 10.8021 9.37315 11.1463 9.46861H11.5485C12.1607 9.60143 12.8488 9.51112 13.422 9.68158C14.436 10.0053 15.3538 10.48 16.177 10.9938C18.6824 12.5716 20.7488 14.8147 22.1446 17.4955C22.374 17.9327 22.4696 18.3319 22.6806 18.7881C23.0827 19.72 23.5801 20.6702 23.9809 21.5831C24.3831 22.4766 24.7654 23.3897 25.3392 24.131C25.6263 24.5302 26.7735 24.7389 27.2898 24.9481C27.6726 25.1186 28.2651 25.2721 28.6102 25.4808C29.2601 25.88 29.9106 26.3363 30.5223 26.7735C30.8279 27.001 31.7849 27.4764 31.8418 27.8556L31.844 27.8453ZM12.3373 11.3261C12.0731 11.3238 11.8097 11.3557 11.5537 11.4211V11.4638H11.5913C11.7445 11.768 12.0124 11.9772 12.2035 12.2435L12.6438 13.156L12.6817 13.1135C12.9495 12.9235 13.0837 12.6192 13.0837 12.1635C12.9688 12.0305 12.9499 11.8971 12.8543 11.7641C12.7395 11.5741 12.4909 11.4786 12.3373 11.3271V11.3261Z" fill="#00678C"/>
</g>
</svg>
