<svg width="60" height="60" viewBox="0 0 60 60" fill="none" xmlns="http://www.w3.org/2000/svg">
<mask id="mask0_274_412" style="mask-type:luminance" maskUnits="userSpaceOnUse" x="0" y="0" width="60" height="60">
<path d="M0 0H60V60H0V0Z" fill="white"/>
</mask>
<g mask="url(#mask0_274_412)">
<mask id="mask1_274_412" style="mask-type:luminance" maskUnits="userSpaceOnUse" x="0" y="0" width="60" height="60">
<path d="M16.5921 0H43.4079C52.5715 0 60 7.42895 60 16.593V43.407C60 52.571 52.5715 60 43.4079 60H16.5921C7.42854 60 0 52.571 0 43.407V16.593C0 7.42895 7.42854 0 16.5921 0Z" fill="white"/>
</mask>
<g mask="url(#mask1_274_412)">
<path d="M0 0H60V60H0V0Z" fill="white"/>
</g>
</g>
<path fill-rule="evenodd" clip-rule="evenodd" d="M15.967 16.0081H16.9642V12.0094H15.967C12.6533 12.0094 9.97103 14.6951 9.97103 18.0057V25.0026C9.97103 25.6308 9.67189 26.2225 9.17001 26.6014L6.77027 28.3996C6.29166 28.7586 5.99917 29.317 5.97258 29.9153C5.94935 30.517 6.19527 31.0953 6.64397 31.4942L9.29963 33.8542C9.72507 34.2331 9.97103 34.7749 9.97103 35.3466V41.9911C9.97103 45.3051 12.6533 47.9875 15.967 47.9875H16.9642V43.9921H15.967C14.8602 43.9921 13.9662 43.0947 13.9662 41.9911V35.3466C13.9662 33.6348 13.2349 32.0028 11.9553 30.866L11.1277 30.1314L11.5697 29.799C13.0787 28.6655 13.9662 26.8906 13.9662 25.0026V18.0057C13.9662 16.9022 14.8602 16.0081 15.967 16.0081Z" fill="#292929"/>
<path fill-rule="evenodd" clip-rule="evenodd" d="M44.2255 16.0081H43.2251V12.0094H44.2255C47.536 12.0094 50.2216 14.6951 50.2216 18.0057V25.0026C50.2216 25.6308 50.5174 26.2225 51.0192 26.6014L53.419 28.3996C53.8976 28.7586 54.1901 29.317 54.2167 29.9153C54.2399 30.517 53.994 31.0953 53.5453 31.4942L50.8929 33.8542C50.4642 34.2331 50.2216 34.7749 50.2216 35.3466V41.9911C50.2216 45.3051 47.536 47.9875 44.2255 47.9875H43.2251V43.9921H44.2255C45.329 43.9921 46.2231 43.0947 46.2231 41.9911V35.3466C46.2231 33.6348 46.9543 32.0028 48.2373 30.866L49.0616 30.1314L48.6228 29.799C47.1105 28.6655 46.2231 26.8906 46.2231 25.0026V18.0057C46.2231 16.9022 45.329 16.0081 44.2255 16.0081Z" fill="#292929"/>
<path d="M24.8777 37.2658C27.5234 36.0326 29.3614 33.4932 29.3614 29.0823V18.5389C29.3614 18.0735 29.1121 17.8242 28.6468 17.8242H24.7181C24.2528 17.8242 24.0035 18.0735 24.0035 18.5389V41.4107C24.0035 41.8761 24.2528 42.1254 24.7181 42.1254H37.0093C37.4746 42.1254 37.7239 41.8761 37.7239 41.4107V37.9804C37.7239 37.5151 37.4746 37.2658 37.0093 37.2658H24.8777Z" fill="#292929"/>
</svg>
